<?xml version="1.0" encoding="UTF-8"?>
<svg width="16px" height="24px" viewBox="0 0 16 24" version="1.1" xmlns="http://www.w3.org/2000/svg" xmlns:xlink="http://www.w3.org/1999/xlink">
    <!-- Generator: sketchtool 42 (36781) - http://www.bohemiancoding.com/sketch -->
    <title>D8B8FF86-BD44-4033-959D-17CF530AE5D7</title>
    <desc>Created with sketchtool.</desc>
    <defs></defs>
    <g id="Symbols" stroke="none" stroke-width="1" fill="none" fill-rule="evenodd">
        <g id="SignUp-Form-1" transform="translate(-58.000000, -160.000000)">
            <g id="smartphone-(1)" transform="translate(58.000000, 160.000000)">
                <g id="Layer_1">
                    <g id="Group" transform="translate(0.656250, 0.609375)" fill="#CEE8FA">
                        <path d="M14.0602031,2.78085937 L14.0602031,1.59389062 C14.0602031,0.733171875 13.3624688,0.035484375 12.5018437,0.035484375 L1.56075,0.035484375 C0.70003125,0.03553125 0.00234375,0.733265625 0.00234375,1.59389062 L0.00234375,2.78085937 L14.0602031,2.78085937 Z" id="Shape"></path>
                        <path d="M0.002296875,18.0652031 L0.002296875,21.1872656 C0.002296875,22.0479844 0.70003125,22.7456719 1.56065625,22.7456719 L12.50175,22.7456719 C13.3624687,22.7456719 14.0601094,22.0479375 14.0601094,21.1872656 L14.0601094,18.0652031 L0.002296875,18.0652031 Z" id="Shape"></path>
                    </g>
                    <g id="Group" fill="#2D527C">
                        <path d="M13.158,0 L2.217,0 C1.00204688,0 0.0136875,0.98840625 0.0136875,2.20326563 L0.0136875,3.39023438 L0.0136875,18.6745781 L0.0136875,21.7967344 C0.0136875,23.0115937 1.00209375,24 2.217,24 L13.1580469,24 C14.373,24 15.3613594,23.0115937 15.3613594,21.7967344 L15.3613594,18.6745781 L15.3613594,16.5147188 C15.3613594,16.1585156 15.0725625,15.8698125 14.7164531,15.8698125 C14.3603438,15.8698125 14.0715469,16.1585156 14.0715469,16.5147188 L14.0715469,18.0296719 L1.30345313,18.0296719 L1.30345313,4.03514063 L14.0715,4.03514063 L14.0715,11.9999531 C14.0715,12.3561563 14.3602969,12.6448594 14.7164063,12.6448594 C15.0725156,12.6448594 15.3613125,12.3561563 15.3613125,11.9999531 L15.3613125,3.39023438 L15.3613125,2.20326563 C15.3613594,0.98840625 14.3729531,0 13.158,0 Z M14.0715469,19.3194844 L14.0715469,21.7967344 C14.0715469,22.3004062 13.6617656,22.7101875 13.1580469,22.7101875 L2.217,22.7101875 C1.71328125,22.7101875 1.3035,22.3004062 1.3035,21.7967344 L1.3035,19.3194844 L14.0715469,19.3194844 Z M1.30345313,2.74532813 L1.30345313,2.20326563 C1.30345313,1.69959375 1.71323438,1.2898125 2.21695313,1.2898125 L13.158,1.2898125 C13.6617188,1.2898125 14.0715,1.69959375 14.0715,2.20326563 L14.0715,2.74532813 L1.30345313,2.74532813 Z" id="Shape"></path>
                        <ellipse id="Oval" cx="7.68735937" cy="21.0150469" rx="0.440671875" ry="0.440671875"></ellipse>
                        <path d="M7.6875,22.1004375 C7.08895312,22.1004375 6.60192188,21.6134531 6.60192188,21.0148594 C6.60192188,20.4162656 7.08895312,19.9292813 7.6875,19.9292813 C8.28604688,19.9292813 8.77307812,20.4162656 8.77307812,21.0148594 C8.77307812,21.6134531 8.28609375,22.1004375 7.6875,22.1004375 Z M7.6875,20.8105781 C7.57490625,20.8105781 7.48326562,20.9022188 7.48326562,21.0148125 C7.48326562,21.1274063 7.57490625,21.2190469 7.6875,21.2190469 C7.80009375,21.2190469 7.89173438,21.1274531 7.89173438,21.0148125 C7.89173438,20.9021719 7.80009375,20.8105781 7.6875,20.8105781 Z" id="Shape"></path>
                        <path d="M6.4944375,10.47075 L3.26990625,10.47075 C2.91379687,10.47075 2.625,10.182 2.625,9.82584375 L2.625,7.03125 C2.625,6.67504688 2.91379687,6.38634375 3.26990625,6.38634375 L6.4944375,6.38634375 C6.85054688,6.38634375 7.13934375,6.67504687 7.13934375,7.03125 C7.13934375,7.38745312 6.85054688,7.67615625 6.4944375,7.67615625 L3.9148125,7.67615625 L3.9148125,9.1809375 L6.4944375,9.1809375 C6.85054688,9.1809375 7.13934375,9.4696875 7.13934375,9.82584375 C7.13934375,10.1820469 6.85059375,10.47075 6.4944375,10.47075 Z" id="Shape"></path>
                    </g>
                    <rect id="Rectangle-path" fill="#CEE8FA" x="8.88046875" y="7.0314375" width="3.22453125" height="2.79440625"></rect>
                    <path d="M12.1051406,10.47075 L8.88060937,10.47075 C8.5245,10.47075 8.23570313,10.182 8.23570313,9.82584375 L8.23570313,7.03125 C8.23570313,6.67504688 8.5245,6.38634375 8.88060937,6.38634375 L12.1051406,6.38634375 C12.46125,6.38634375 12.7500469,6.67504687 12.7500469,7.03125 L12.7500469,9.82584375 C12.7500469,10.1820469 12.4612969,10.47075 12.1051406,10.47075 Z M9.52551563,9.1809375 L11.4602344,9.1809375 L11.4602344,7.67615625 L9.52551563,7.67615625 L9.52551563,9.1809375 Z" id="Shape" fill="#2D527C"></path>
                    <rect id="Rectangle-path" fill="#CEE8FA" x="3.26971875" y="12.4486875" width="3.22453125" height="2.79440625"></rect>
                    <g id="Group" transform="translate(2.625000, 11.765625)" fill="#2D527C">
                        <path d="M3.8694375,4.1225625 L0.64490625,4.1225625 C0.288796875,4.1225625 -1.33226763e-15,3.8338125 -1.33226763e-15,3.47765625 L-1.33226763e-15,0.6830625 C-1.33226763e-15,0.326859375 0.288796875,0.03815625 0.64490625,0.03815625 L3.8694375,0.03815625 C4.22554688,0.03815625 4.51434375,0.326859375 4.51434375,0.6830625 L4.51434375,3.47765625 C4.51434375,3.83385937 4.22559375,4.1225625 3.8694375,4.1225625 Z M1.28976562,2.83275 L3.22448437,2.83275 L3.22448437,1.32796875 L1.28976562,1.32796875 L1.28976562,2.83275 L1.28976562,2.83275 Z" id="Shape"></path>
                        <path d="M9.48014063,4.1225625 L6.25560937,4.1225625 C5.8995,4.1225625 5.61070312,3.8338125 5.61070312,3.47765625 C5.61070312,3.1215 5.8995,2.83275 6.25560937,2.83275 L8.83523437,2.83275 L8.83523437,1.32796875 L6.25560937,1.32796875 C5.8995,1.32796875 5.61070312,1.03926562 5.61070312,0.6830625 C5.61070312,0.326859375 5.8995,0.03815625 6.25560937,0.03815625 L9.48014063,0.03815625 C9.83625,0.03815625 10.1250469,0.326859375 10.1250469,0.6830625 L10.1250469,3.47765625 C10.1250469,3.83385937 9.83629688,4.1225625 9.48014063,4.1225625 Z" id="Shape"></path>
                    </g>
                </g>
            </g>
        </g>
    </g>
</svg>