<?xml version="1.0" encoding="UTF-8"?>
<svg width="23px" height="24px" viewBox="0 0 23 24" version="1.1" xmlns="http://www.w3.org/2000/svg" xmlns:xlink="http://www.w3.org/1999/xlink">
    <!-- Generator: sketchtool 42 (36781) - http://www.bohemiancoding.com/sketch -->
    <title>8A5ABFD7-BD1B-4313-A528-83030D94F43F</title>
    <desc>Created with sketchtool.</desc>
    <defs></defs>
    <g id="Symbols" stroke="none" stroke-width="1" fill="none" fill-rule="evenodd">
        <g id="SignUp-Form-1" transform="translate(-55.000000, -96.000000)">
            <g id="email-(1)" transform="translate(55.000000, 96.000000)">
                <g id="Layer_1">
                    <path d="M10.7174062,10.6908281 C10.8591562,10.8051094 11.0311875,10.8621563 11.203125,10.8621563 C11.3750625,10.8621563 11.5470937,10.8050156 11.6888437,10.6908281 L18.2807812,5.37895313 C18.4631719,5.232 18.56925,5.010375 18.56925,4.77609375 L18.56925,4.6595625 C18.56925,4.23196875 18.2226562,3.885375 17.7950625,3.885375 L4.61128125,3.885375 C4.1836875,3.885375 3.83709375,4.23196875 3.83709375,4.6595625 L3.83709375,4.77609375 L3.83709375,14.4291563 L3.83709375,14.5161094 C3.83709375,14.9437031 4.1836875,15.2902969 4.61128125,15.2902969 L17.7950625,15.2902969 C18.2226562,15.2902969 18.56925,14.9437031 18.56925,14.5161094 C18.56925,14.5019531 18.5678437,14.4880781 18.5671406,14.4741563 C18.5678437,14.4616875 18.5687812,14.4491719 18.5689219,14.4367031 C18.5689219,14.4342188 18.5692969,14.4318281 18.5692969,14.42925 L18.5692969,9.04570313 C18.5692969,8.61810938 18.2227031,8.27151563 17.7951094,8.27151563 C17.3675156,8.27151563 17.0209219,8.61810938 17.0209219,9.04570313 L17.0209219,12.7434844 L14.5642969,10.6332188 C14.2399687,10.3546406 13.7511562,10.3916719 13.4724844,10.716 C13.1938125,11.0403281 13.2309375,11.5291406 13.5552656,11.8078125 L15.8068125,13.7419219 L6.59953125,13.7419219 L8.85117187,11.8078125 C9.1755,11.5291875 9.21257812,11.0404219 8.93395312,10.716 C8.65532812,10.3916719 8.1665625,10.3545938 7.84214062,10.6332188 L5.38551562,12.7434844 L5.38551562,6.39426563 L10.7174062,10.6908281 Z M15.7450312,5.43379688 L11.203125,9.09370313 L6.6613125,5.43379688 L15.7450312,5.43379688 L15.7450312,5.43379688 Z" id="Shape" fill="#2D527C"></path>
                    <rect id="Rectangle-path" fill="#CEE8FA" x="0.79003125" y="18.1939219" width="20.8262344" height="5.032125"></rect>
                    <path d="M21.6162187,15.3570469 C22.0438125,15.3570469 22.3904062,15.0104531 22.3904062,14.5828594 L22.3904062,0.7741875 C22.3904531,0.34659375 22.0438125,0 21.6162187,0 L0.79003125,0 C0.3624375,0 0.01584375,0.34659375 0.01584375,0.7741875 L0.01584375,18.1936406 L0.01584375,19.6165781 L0.01584375,23.2257656 C0.01584375,23.6533594 0.3624375,23.9999531 0.79003125,23.9999531 L21.6162187,23.9999531 C22.0438125,23.9999531 22.3904062,23.6533594 22.3904062,23.2257656 L22.3904062,18.1936875 C22.3904062,17.7660938 22.0438125,17.4195 21.6162187,17.4195 L1.56421875,17.4195 L1.56421875,1.54842188 L20.8420312,1.54842188 L20.8420312,14.5828594 C20.8420312,15.0104531 21.188625,15.3570469 21.6162187,15.3570469 Z M20.8420312,18.967875 L20.8420312,22.4515781 L1.56421875,22.4515781 L1.56421875,19.6165781 L1.56421875,18.967875 L20.8420312,18.967875 Z" id="Shape" fill="#2D527C"></path>
                </g>
            </g>
        </g>
    </g>
</svg>