<?xml version="1.0" encoding="UTF-8"?>
<svg width="119px" height="104px" viewBox="0 0 119 104" version="1.1" xmlns="http://www.w3.org/2000/svg" xmlns:xlink="http://www.w3.org/1999/xlink">
    <!-- Generator: sketchtool 41.2 (35397) - http://www.bohemiancoding.com/sketch -->
    <title>37800CB8-EC88-4E6A-A521-282C0FEACB33</title>
    <desc>Created with sketchtool.</desc>
    <defs>
        <path d="M35,143.139574 L74.2214947,143.814122 L83.8622315,131.013703 L98.1481729,151.814384 L106.198963,39.5159701 L118.282727,199.275306 L125.465278,146.066827 C125.465278,146.066827 127.862509,144.026232 131.563842,142.513911 C134.656012,141.250486 138.65835,140.471558 142.933495,140.461205 C146.468042,140.452646 150.373619,140.848608 153.39226,141.824026 C158.395185,143.44063 161.631515,145.979245 161.631515,145.979245 L183.449492,145.862189 L194.676807,128.149609 L201.147756,142.341232 L204.192908,139.125968 L210.360689,155.762303 L219.966898,34 L224.985358,118.091226 L230.09523,203.714188 L241.556658,143.519375 L260.280639,143.709697 C260.280639,143.709697 262.351338,140.511631 265.499166,138.273165 C267.598307,136.780436 270.176441,135.927312 272.93893,135.952671 C275.321408,135.974542 277.730934,136.550605 279.865213,137.797989 C283.916647,140.165858 286.97625,143.954758 286.97625,143.954758 L306.331832,143.687802" id="path-1"></path>
        <filter x="-50%" y="-50%" width="200%" height="200%" filterUnits="objectBoundingBox" id="filter-2">
            <feMorphology radius="3" operator="dilate" in="SourceAlpha" result="shadowSpreadOuter1"></feMorphology>
            <feOffset dx="0" dy="0" in="shadowSpreadOuter1" result="shadowOffsetOuter1"></feOffset>
            <feMorphology radius="3" operator="erode" in="SourceAlpha" result="shadowInner"></feMorphology>
            <feOffset dx="0" dy="0" in="shadowInner" result="shadowInner"></feOffset>
            <feComposite in="shadowOffsetOuter1" in2="shadowInner" operator="out" result="shadowOffsetOuter1"></feComposite>
            <feGaussianBlur stdDeviation="2.5" in="shadowOffsetOuter1" result="shadowBlurOuter1"></feGaussianBlur>
            <feColorMatrix values="0 0 0 0 1   0 0 0 0 1   0 0 0 0 1  0 0 0 0.5 0" type="matrix" in="shadowBlurOuter1"></feColorMatrix>
        </filter>
    </defs>
    <g id="Symbols" stroke="none" stroke-width="1" fill="none" fill-rule="evenodd">
        <g id="Health-Insurance-Card" transform="translate(-26.000000, -16.000000)">
            <g id="Health-Insurance" transform="translate(26.000000, 16.000000)">
                <g stroke-width="1" fill-rule="evenodd" id="Combined-Shape" fill="#F1A1AE">
                    <path d="M171,297.95234 C171,280.416899 171,64.8102514 171,64.8102514 C171,64.8102514 176.942881,46.9370886 192.929963,29.8119815 C199.222391,23.0716326 207.665522,16.4471699 217.016207,11.0740105 C220.182203,9.25474292 227.102411,5.83021821 235.586218,3.57301435 C240.71383,2.20876081 246.412622,1.49423534 252.198938,1.18256755 C259.464386,0.791229403 267.320467,1.27679051 274.211811,3.01548322 C277.979984,3.96619686 281.786204,4.9904687 284.946593,6.30528876 C286.974398,7.1489188 288.529323,7.96731968 290.320307,8.6319356 C299.522717,12.0468554 313.306477,23.0466489 321.821238,34.900136 C332.255388,49.4256253 336.542407,64.8800728 336.542407,64.8800728 C336.542407,64.8800728 342.711773,87.8352127 341.522753,111.964872 C341.058886,121.378476 339.012827,129.319844 336.373852,136.67576 C332.079334,148.646362 325.577208,157.485419 325.577208,157.485419 C325.577208,157.485419 322.317519,161.940139 317.005444,167.527032 C313.476185,171.238877 309.040989,175.25394 304.053915,179.507858 C291.560533,190.164572 277.25778,198.701346 277.25778,198.701346 L248.606714,216.894002 L228.31503,231.38203 C228.31503,231.38203 203.18553,251.680398 181.758065,278.522582 C179.89757,280.853225 178.989501,282.501994 177.686105,284.560516 C176.089199,287.082593 174.251488,290.218978 173.690088,291.278091 C172.670471,293.201653 171.848782,295.523532 171,297.95234 Z M170.966565,297.123808 C170.966565,279.588366 170.966565,63.9817185 170.966565,63.9817185 C170.966565,63.9817185 165.023684,46.1085557 149.036602,28.9834487 C142.744174,22.2430997 134.301043,15.6186371 124.950358,10.2454777 C121.784362,8.42621007 114.864154,5.00168536 106.380347,2.7444815 C101.252735,1.38022796 95.5539425,0.665702491 89.7676268,0.354034703 C82.5021788,-0.0373034467 74.6460978,0.448257657 67.7547535,2.18695037 C63.9865806,3.13766401 60.1803605,4.16193585 57.0199718,5.47675591 C54.9921668,6.32038595 53.4372423,7.13878683 51.6462579,7.80340275 C42.4438481,11.2183226 28.6600881,22.2181161 20.1453273,34.0716031 C9.71117683,48.5970925 5.4241576,64.0515399 5.4241576,64.0515399 C5.4241576,64.0515399 -0.745208231,87.0066798 0.443811508,111.136339 C0.907678877,120.549943 2.95373773,128.491311 5.59271289,135.847228 C9.88723124,147.817829 16.3893569,156.656886 16.3893569,156.656886 C16.3893569,156.656886 19.6490462,161.111606 24.9611205,166.698499 C28.4903801,170.410344 32.9255762,174.425408 37.9126504,178.679326 C50.4060322,189.336039 64.7087848,197.872814 64.7087848,197.872814 L93.3598506,216.065469 L113.651535,230.553497 C113.651535,230.553497 138.781035,250.851865 160.2085,277.69405 C162.068995,280.024692 162.977064,281.673462 164.28046,283.731983 C165.877366,286.25406 167.715077,289.390445 168.276477,290.449558 C169.296093,292.37312 170.117783,294.694999 170.966565,297.123808 Z"></path>
                </g>
                <g id="Path-2">
                    <use fill="black" fill-opacity="1" filter="url(#filter-2)" xlink:href="#path-1"></use>
                    <use stroke="#FFFFFF" stroke-width="2" xlink:href="#path-1"></use>
                </g>
            </g>
        </g>
    </g>
</svg>