<?xml version="1.0" encoding="UTF-8"?>
<svg width="29px" height="18px" viewBox="0 0 29 18" version="1.1" xmlns="http://www.w3.org/2000/svg" xmlns:xlink="http://www.w3.org/1999/xlink">
    <!-- Generator: sketchtool 42 (36781) - http://www.bohemiancoding.com/sketch -->
    <title>1C9636AC-BFE9-4840-A2A6-83ECCFB186E1</title>
    <desc>Created with sketchtool.</desc>
    <defs></defs>
    <g id="Symbols" stroke="none" stroke-width="1" fill="none" fill-rule="evenodd">
        <g id="SignUp-Form-1" transform="translate(-52.000000, -227.000000)">
            <g id="password" transform="translate(52.000000, 227.000000)">
                <g id="Layer_1">
                    <path d="M10.5006951,17.9805732 L2.1919939,17.9805732 C0.983359756,17.9805732 0,16.9972134 0,15.7886341 L0,7.21339024 C0,6.00486585 0.983195122,5.02167073 2.19171951,5.02167073 L10.5009146,5.02167073 C11.709439,5.02167073 12.6926341,6.00486585 12.6926341,7.21339024 L12.6926341,13.3530915 C12.6926341,13.7712073 12.3537073,14.110189 11.9355366,14.110189 C11.5173659,14.110189 11.178439,13.7712622 11.178439,13.3530915 L11.178439,7.21339024 C11.178439,6.83978049 10.8744695,6.53581098 10.5008598,6.53581098 L2.19171951,6.53581098 C1.81810976,6.53581098 1.51414024,6.83978049 1.51414024,7.21339024 L1.51414024,15.7885793 C1.51414024,16.1623537 1.81816463,16.466378 2.19193902,16.466378 L10.5006402,16.466378 C10.9187561,16.466378 11.2577378,16.8053049 11.2577378,17.2234756 C11.2577378,17.6416463 10.918811,17.9805732 10.5006951,17.9805732 Z" id="Shape" fill="#2D527C"></path>
                    <rect id="Rectangle-path" fill="#CEE8FA" x="11.9058476" y="6.89943293" width="15.434561" height="7.30201829"></rect>
                    <g id="Group" transform="translate(1.646341, 0.000000)" fill="#2D527C">
                        <path d="M25.694122,14.9581646 L10.2598902,14.9581646 C9.84177439,14.9581646 9.50279268,14.6192378 9.50279268,14.2010671 L9.50279268,6.89915854 C9.50279268,6.48104268 9.84171951,6.14206098 10.2598902,6.14206098 L25.6941768,6.14206098 C26.1122927,6.14206098 26.4512744,6.4809878 26.4512744,6.89915854 L26.4512744,14.201122 C26.4512195,14.6192378 26.1122927,14.9581646 25.694122,14.9581646 Z M11.0169329,13.4440244 L24.9370244,13.4440244 L24.9370244,7.65620122 L11.0169329,7.65620122 L11.0169329,13.4440244 Z" id="Shape"></path>
                        <path d="M8.64296341,6.10913415 C8.22484756,6.10913415 7.88586585,5.77020732 7.88586585,5.35203659 L7.88586585,4.71940244 C7.88586585,2.96270122 6.45673171,1.5335122 4.69997561,1.5335122 C2.94321951,1.5335122 1.51408537,2.96264634 1.51408537,4.71940244 L1.51408537,5.35203659 C1.51408537,5.77015244 1.17515854,6.10913415 0.756987805,6.10913415 C0.338817073,6.10913415 0,5.77020732 0,5.35203659 L0,4.71940244 C0,2.12784146 2.10846951,0.0193719512 4.70003049,0.0193719512 C7.29159146,0.0193719512 9.40006098,2.12784146 9.40006098,4.71940244 L9.40006098,5.35203659 C9.40006098,5.77020732 9.06113415,6.10913415 8.64296341,6.10913415 Z" id="Shape"></path>
                        <path d="M14.2403049,11.3072378 L13.1727622,11.3072378 C12.7546463,11.3072378 12.4156646,10.968311 12.4156646,10.5501402 C12.4156646,10.1320244 12.7545915,9.79304268 13.1727622,9.79304268 L14.2403049,9.79304268 C14.6584207,9.79304268 14.9974024,10.1319695 14.9974024,10.5501402 C14.9973476,10.968311 14.6584207,11.3072378 14.2403049,11.3072378 Z" id="Shape"></path>
                        <path d="M18.5108049,11.3072378 L17.4431524,11.3072378 C17.0250366,11.3072378 16.6860549,10.968311 16.6860549,10.5501402 C16.6860549,10.1320244 17.0249817,9.79304268 17.4431524,9.79304268 L18.5108049,9.79304268 C18.9289207,9.79304268 19.2679024,10.1319695 19.2679024,10.5501402 C19.2679024,10.968311 18.9288659,11.3072378 18.5108049,11.3072378 Z" id="Shape"></path>
                        <path d="M22.7811951,11.3072378 L21.7136524,11.3072378 C21.2955366,11.3072378 20.9565549,10.968311 20.9565549,10.5501402 C20.9565549,10.1320244 21.2954817,9.79304268 21.7136524,9.79304268 L22.7811951,9.79304268 C23.199311,9.79304268 23.5382927,10.1319695 23.5382927,10.5501402 C23.5382927,10.968311 23.199311,11.3072378 22.7811951,11.3072378 Z" id="Shape"></path>
                    </g>
                    <ellipse id="Oval" fill="#CEE8FA" cx="6.34659146" cy="11.3828598" rx="1.8170122" ry="1.8170122"></ellipse>
                    <path d="M6.34637195,13.9570793 C4.9270061,13.9570793 3.77231707,12.8023902 3.77231707,11.3830244 C3.77231707,9.96365854 4.9270061,8.80896951 6.34637195,8.80896951 C7.7657378,8.80896951 8.92042683,9.96365854 8.92042683,11.3830244 C8.92042683,12.8023902 7.76568293,13.9570793 6.34637195,13.9570793 Z M6.34637195,10.3231098 C5.76192073,10.3231098 5.28645732,10.7985732 5.28645732,11.3830244 C5.28645732,11.9674756 5.76192073,12.442939 6.34637195,12.442939 C6.93082317,12.442939 7.40628659,11.9674756 7.40628659,11.3830244 C7.40628659,10.7985732 6.93076829,10.3231098 6.34637195,10.3231098 Z" id="Shape" fill="#2D527C"></path>
                </g>
            </g>
        </g>
    </g>
</svg>