<?xml version="1.0" encoding="UTF-8"?>
<svg width="20px" height="20px" viewBox="0 0 20 20" version="1.1" xmlns="http://www.w3.org/2000/svg" xmlns:xlink="http://www.w3.org/1999/xlink">
    <!-- Generator: sketchtool 42 (36781) - http://www.bohemiancoding.com/sketch -->
    <title>8A28AF68-1DFF-487E-980E-05A78A79D91C</title>
    <desc>Created with sketchtool.</desc>
    <defs></defs>
    <g id="Symbols" stroke="none" stroke-width="1" fill="none" fill-rule="evenodd">
        <g id="SignUp-Form-1-New" transform="translate(-317.000000, -110.000000)">
            <g id="cancel" transform="translate(317.000000, 110.000000)">
                <g id="Layer_1">
                    <path d="M19.9661167,9.9832998 C19.9661167,4.46937626 15.496499,0.000120724346 9.98317907,0.000120724346 C4.46961771,0.000120724346 0,4.46933602 0,9.9832998 C0,15.4964588 4.46961771,19.965996 9.98317907,19.965996 C15.496499,19.965996 19.9661167,15.4964588 19.9661167,9.9832998 Z" id="Shape" fill="#E04F5F"></path>
                    <path d="M11.1485714,9.98317907 L14.0672032,6.59501006 C14.3855131,6.22551308 14.3439034,5.66780684 13.9742455,5.34949698 C13.6051509,5.03142857 13.0474044,5.07279678 12.7288934,5.44229376 L9.98297787,8.6298994 L7.23734406,5.44229376 C6.91903421,5.07255533 6.36124748,5.03118712 5.99171026,5.34949698 C5.62205231,5.66780684 5.5806841,6.22555332 5.89899396,6.59501006 L8.81738431,9.98317907 L5.89899396,13.3711871 C5.5806841,13.7406841 5.62205231,14.2983903 5.99171026,14.6167002 C6.15843058,14.7603219 6.36358149,14.8307042 6.56780684,14.8307042 C6.81573441,14.8307042 7.06253521,14.7266398 7.23734406,14.5239034 L9.98297787,11.3362978 L12.7288934,14.5239034 C12.9034608,14.7267606 13.1502213,14.8307042 13.3983903,14.8307042 C13.6023742,14.8307042 13.8075654,14.7603219 13.9742857,14.6167002 C14.3439437,14.2983903 14.3855533,13.7406439 14.0672435,13.3711871 L11.1485714,9.98317907 Z" id="Shape" fill="#FFFFFF"></path>
                </g>
            </g>
        </g>
    </g>
</svg>