<?xml version="1.0" encoding="UTF-8"?>
<svg width="28px" height="24px" viewBox="0 0 28 24" version="1.1" xmlns="http://www.w3.org/2000/svg" xmlns:xlink="http://www.w3.org/1999/xlink">
    <!-- Generator: sketchtool 42 (36781) - http://www.bohemiancoding.com/sketch -->
    <title>CCE1622F-9C19-4157-8193-68127C8CBDDF</title>
    <desc>Created with sketchtool.</desc>
    <defs></defs>
    <g id="Symbols" stroke="none" stroke-width="1" fill="none" fill-rule="evenodd">
        <g id="SignUp-Form-1" transform="translate(-52.000000, -32.000000)">
            <g id="connections" transform="translate(52.000000, 32.000000)">
                <g id="Capa_1">
                    <g id="Group">
                        <path d="M8.41123274,10.9426496 C10.0685831,10.9426496 11.4207468,9.30267008 11.4530332,7.25892583 C11.4534015,7.2340665 12.7215959,4.9028133 12.7215959,4.9028133 C12.6634066,4.57804604 12.4995192,3.90248593 12.0731049,3.24595396 C11.3172583,2.08223018 10.0871202,1.49475192 8.41424041,1.50230179 L8.41123274,1.50230179 C8.41074169,1.50230179 8.41025064,1.50224041 8.40982097,1.50224041 C8.40932992,1.50224041 8.40883887,1.50230179 8.40834783,1.50230179 C8.39895652,1.50230179 8.38944246,1.50224041 8.38011253,1.50224041 C6.72239386,1.50224041 5.50103325,2.08879795 4.74948338,3.24595396 C4.3235601,3.90181074 4.15948849,4.57663427 4.10105371,4.90299744 C4.10105371,4.90299744 5.3691867,7.23062916 5.36967775,7.25892583 C5.40626087,9.29794373 6.7566445,10.9426496 8.41123274,10.9426496 Z" id="Shape"></path>
                        <path d="M14.2607263,13.3133095 C14.2607263,12.9064757 14.5905269,12.5767366 14.9972992,12.5767366 C15.404133,12.5767366 15.7338721,12.9064757 15.7338721,13.3133095 C15.7338721,14.3343223 16.0637954,15.2611151 16.5978721,15.9405422 C16.6137698,15.9585269 16.628624,15.9772481 16.6425575,15.9966445 C17.1921023,16.6672941 17.9456777,17.0821688 18.7763478,17.0821688 C19.6067724,17.0821688 20.3603478,16.6674169 20.9098926,15.9967673 C20.9239488,15.9771867 20.93911,15.9581586 20.9551304,15.9399284 C21.4889003,15.260624 21.8186394,14.333954 21.8186394,13.3133095 C21.8186394,12.9064757 22.1484399,12.5767366 22.5552123,12.5767366 C22.9619847,12.5767366 23.2917852,12.9064757 23.2917852,13.3133095 C23.2917852,13.8567775 23.2200921,14.3810946 23.0872634,14.8744143 L24.7477442,14.0971458 C24.2784859,12.4833146 22.615734,7.91662404 18.7762864,7.64396931 C14.9252379,7.91729923 13.2700972,12.4828235 12.8038465,14.0967161 L14.4651867,14.8744143 C14.3324194,14.3810946 14.2607263,13.8567775 14.2607263,13.3133095 Z" id="Shape"></path>
                        <path d="M23.7787212,20.005688 C22.4522762,19.0704246 20.6757238,18.5553146 18.7764092,18.5553146 C16.8770332,18.5553146 15.1004194,19.0704246 13.7740358,20.005688 C12.7843887,20.703468 12.1471918,21.5677136 11.9256675,22.4934629 L25.6270281,22.4934629 C25.4054425,21.5677136 24.7683683,20.703468 23.7787212,20.005688 Z" id="Shape" fill="#73D0F4"></path>
                        <path d="M14.1512839,16.3540051 L11.6249616,15.171376 C11.3152941,15.0264552 11.1460665,14.6872634 11.2164706,14.3526752 C11.2253708,14.3105064 11.3445115,13.7551918 11.6199284,12.9518363 C10.6325524,12.6000614 9.53671611,12.4158568 8.4113555,12.4158568 C6.51197954,12.4158568 4.73542711,12.9309668 3.40892072,13.8662302 C2.41933504,14.5639488 1.78219949,15.4283171 1.56067519,16.3540051 L14.1512839,16.3540051 L14.1512839,16.3540051 Z" id="Shape" fill="#73D0F4"></path>
                        <path d="M24.6276215,18.8017596 C23.7453913,18.1796624 22.7040614,17.7144552 21.5713964,17.4258414 C21.7061893,17.3020972 21.8353964,17.1704962 21.9571765,17.0300563 L25.9276726,15.1714373 C26.2374629,15.0265166 26.4066292,14.6873248 26.3362251,14.3527366 C26.3196522,14.2739847 25.9180358,12.4019233 24.8289514,10.4666394 C23.3317442,7.80626087 21.2545473,6.32053197 18.8218312,6.17008696 C18.819376,6.16990281 18.8169821,6.17008696 18.8145269,6.16996419 C18.8023734,6.16935038 18.7900358,6.16953453 18.7776368,6.16953453 C18.7641944,6.16947315 18.7506905,6.169289 18.7374322,6.16996419 C18.7352839,6.17008696 18.7331355,6.16996419 18.7308645,6.17008696 C16.2981483,6.32053197 14.22089,7.80626087 12.7236829,10.4666394 C12.5106905,10.8451151 12.3243376,11.2209514 12.1616777,11.581688 C11.850844,11.4692379 11.5312327,11.3712737 11.2045013,11.2879795 C12.1613095,10.4106598 12.8055652,9.094711 12.9103427,7.6034578 C12.9273453,7.57970332 12.9438568,7.55527366 12.9582813,7.52894118 L14.1304143,5.39840409 C14.1996522,5.27251151 14.2305882,5.12900256 14.2193555,4.98573913 C14.2153043,4.93448593 14.1120614,3.71613299 13.347376,2.50434783 C12.6338824,1.37370844 11.2043171,0.0291560102 8.4424757,0.0291560102 C8.4321023,0.0291560102 8.42160614,0.0292173913 8.41123274,0.0292173913 C8.40073657,0.0292173913 8.39054731,0.0291560102 8.37998977,0.0291560102 C5.61845524,0.0291560102 4.18852174,1.37376982 3.47502813,2.50434783 C2.71034271,3.71613299 2.60709974,4.93448593 2.60310997,4.98573913 C2.59181586,5.12900256 2.62275192,5.27251151 2.69205115,5.39840409 L3.86418414,7.52894118 C3.8786087,7.55521228 3.89505882,7.57958056 3.91206138,7.60333504 C4.01677749,9.0937289 4.66029668,10.4090026 5.61618414,11.286445 C4.48351918,11.5749974 3.44218926,12.0402046 2.55995908,12.6622404 C0.90911509,13.8261483 0,15.3988542 0,17.090578 C0,17.4974118 0.32973913,17.8271509 0.73657289,17.8271509 L14.7418312,17.8271509 C14.0854834,18.0880818 13.4744348,18.4143836 12.9250742,18.8017596 C11.2742302,19.9657289 10.3650537,21.5383734 10.3650537,23.2300972 C10.3650537,23.6368696 10.6948542,23.9666701 11.1016266,23.9666701 L26.4509463,23.9666701 C26.8577801,23.9666701 27.1875192,23.6368696 27.1875192,23.2300972 C27.1875806,21.538312 26.2784041,19.9656675 24.6276215,18.8017596 Z M11.9256061,22.4934629 C12.1471304,21.5677136 12.7843274,20.703468 13.7739744,20.005688 C15.1003581,19.0704246 16.8769719,18.5553146 18.7763478,18.5553146 C20.6756624,18.5553146 22.4522148,19.0704246 23.7786598,20.005688 C24.7683069,20.703468 25.4053811,21.5677136 25.6269054,22.4934629 L11.9256061,22.4934629 Z M3.40885934,13.8661688 C4.73536573,12.9309054 6.51191816,12.4157954 8.41129412,12.4157954 C9.53671611,12.4157954 10.6325524,12.6000614 11.619867,12.9517749 C11.3444501,13.7551304 11.2252481,14.3105064 11.2164092,14.3526138 C11.1460665,14.687202 11.3152327,15.0263939 11.6249003,15.1713146 L14.1512225,16.3539437 L1.56061381,16.3539437 C1.78213811,15.4283171 2.41927366,14.5638875 3.40885934,13.8661688 Z M18.7762864,7.64396931 C22.615734,7.91662404 24.2785473,12.4833146 24.7477442,14.0971458 L23.0872634,14.8744143 C23.2200921,14.3810946 23.2917852,13.8567775 23.2917852,13.3133095 C23.2917852,12.9064757 22.9619847,12.5767366 22.5552123,12.5767366 C22.1484399,12.5767366 21.8186394,12.9064757 21.8186394,13.3133095 C21.8186394,14.333954 21.4889003,15.260624 20.9551304,15.9399284 C20.9390486,15.9581586 20.9239488,15.9771867 20.9098926,15.9967673 C20.3603478,16.6674169 19.6067724,17.0821688 18.7763478,17.0821688 C17.9457391,17.0821688 17.1921023,16.6672941 16.6425575,15.9966445 C16.628624,15.9772481 16.6137084,15.9585269 16.5978721,15.9405422 C16.0637954,15.2611765 15.7338721,14.3343223 15.7338721,13.3133095 C15.7338721,12.9064757 15.404133,12.5767366 14.9972992,12.5767366 C14.5905269,12.5767366 14.2607263,12.9064757 14.2607263,13.3133095 C14.2607263,13.8567775 14.3324194,14.3810946 14.4652481,14.8744143 L12.8039079,14.0967161 C13.2700972,12.4828235 14.9252379,7.91729923 18.7762864,7.64396931 Z M5.36955499,7.25898721 C5.36906394,7.23069054 4.10093095,4.90305882 4.10093095,4.90305882 C4.15936573,4.57669565 4.32343734,3.90181074 4.74936061,3.24601535 C5.50091049,2.08879795 6.7222711,1.50230179 8.37998977,1.50230179 C8.38931969,1.50230179 8.39883376,1.50236317 8.40822506,1.50236317 C8.40871611,1.50236317 8.40920716,1.50230179 8.40969821,1.50230179 C8.41018926,1.50230179 8.41068031,1.50236317 8.41110997,1.50236317 L8.41411765,1.50236317 C10.0869974,1.4948133 11.3171969,2.08229156 12.0729821,3.24601535 C12.4993964,3.90254731 12.6632839,4.57810742 12.7214731,4.90287468 C12.7214731,4.90287468 11.4532788,7.2340665 11.4529105,7.25898721 C11.4206854,9.30273146 10.0684604,10.942711 8.41110997,10.942711 C6.7566445,10.9426496 5.40626087,9.29794373 5.36955499,7.25898721 Z" id="Shape" fill="#3D6889"></path>
                    </g>
                </g>
            </g>
        </g>
    </g>
</svg>