<?xml version="1.0" encoding="UTF-8"?>
<svg width="20px" height="20px" viewBox="0 0 20 20" version="1.1" xmlns="http://www.w3.org/2000/svg" xmlns:xlink="http://www.w3.org/1999/xlink">
    <!-- Generator: sketchtool 42 (36781) - http://www.bohemiancoding.com/sketch -->
    <title>2479C156-E6F9-446E-ABDE-5CBFCB7B99F5</title>
    <desc>Created with sketchtool.</desc>
    <defs></defs>
    <g id="Symbols" stroke="none" stroke-width="1" fill="none" fill-rule="evenodd">
        <g id="SignUp-Form-1-New" transform="translate(-317.000000, -46.000000)">
            <g id="checked-copy" transform="translate(317.000000, 46.000000)">
                <g id="Layer_1">
                    <path d="M19.9661167,9.9832998 C19.9661167,4.46937626 15.496499,0.000120724346 9.98317907,0.000120724346 C4.46961771,0.000120724346 0,4.46933602 0,9.9832998 C0,15.4964588 4.46961771,19.965996 9.98317907,19.965996 C15.496499,19.965996 19.9661167,15.4964588 19.9661167,9.9832998 Z" id="Shape" fill="#32BEA6"></path>
                    <path d="M15.4797988,6.63855131 C15.2447887,6.03255533 14.7659155,6.12820926 14.247002,6.23102616 C13.9371026,6.29561368 12.5587525,6.69907445 10.3778672,8.99871227 C9.47283702,9.95311871 8.87581489,10.714004 8.48273642,11.2942857 C8.24261569,10.9994769 7.96752515,10.6840644 7.67863179,10.3950503 C6.79018109,9.50684105 5.79939638,8.89686117 5.75774648,8.87122736 C5.34197183,8.61706237 4.79919517,8.74784708 4.54430584,9.1632998 C4.28973843,9.57875252 4.42012072,10.1224145 4.83525151,10.3775453 C4.84374245,10.3828974 5.6945674,10.9089336 6.42957746,11.6441449 C7.17915493,12.3938028 7.85830986,13.4076056 7.86498994,13.4174245 C8.03034205,13.6660362 8.30796781,13.8111066 8.60004024,13.8111066 C8.65018109,13.8111066 8.70080483,13.8068813 8.75118712,13.7981489 C9.09589537,13.7382696 9.37279678,13.4805231 9.45722334,13.1409256 C9.45935614,13.1327565 9.80957746,12.164829 11.6596378,10.2142857 C13.1497384,8.64273642 14.1434608,8.14325956 14.4877666,8.00470825 C14.4910664,8.00414487 14.4934406,8.00390342 14.4979074,8.00297787 C14.4962575,8.00338028 14.5090543,7.99746479 14.5298189,7.98812877 C14.5889336,7.96595573 14.6206036,7.95746479 14.6224145,7.95702213 C14.6054326,7.96124748 14.5966197,7.96229376 14.5966197,7.96229376 L14.5960563,7.95923541 C14.7553722,7.88973843 15.0536419,7.76140845 15.060161,7.75867203 C15.5092555,7.57416499 15.6552918,7.09110664 15.4797988,6.63855131 Z" id="Shape" fill="#FFFFFF"></path>
                </g>
            </g>
        </g>
    </g>
</svg>